<?xml version="1.0" encoding="utf-8"?>
<?xml-stylesheet type="text/xsl" href="rss1.xsl"?>
<rss version="2.0" xmlns:atom="http://www.w3.org/2005/Atom" xmlns:content="http://purl.org/rss/1.0/modules/content/" xmlns:dc="http://purl.org/dc/elements/1.1/" xmlns:media="http://search.yahoo.com/mrss/">
<channel>
 <title>Getty</title>
 <link>http://www.gettyimg.com/</link>
 <atom:link href="http://www.gettyimg.com/" rel="self" type="application/rss+xml" />

 
                <item>
                <title><![CDATA[【Interviews / TV shows / Others】HDTV - Lady GAGA ONLY Edit - Interview Graham Norton Show S29E08 1080p]]></title>
                <link><![CDATA[https://sharemania.us/threads/lady-gaga-only-edit-interview-graham-norton-show-s29e08-1080p.220100/]]></link>
                <description><![CDATA[<article>
<blockquote class="messageText SelectQuoteContainer ugc baseHtml">
<div style="text-align: center"><img src="https://images2.imgbox.com/94/5a/l8hmKPNm_o.gif" class="bbCodeImage LbImage" alt="[​IMG]" data-url="https://images2.imgbox.com/94/5a/l8hmKPNm_o.gif" style=""><br>
<b>Here is a big project edited by me. Edited together all the shots of</b> <span style="font-size: 18px"><span style="color: #ff4d4d"><b>Lady Gaga</b></span></span><b> from her appearance on The Graham Norton Show season 29 episode 8. Lots of editing went into this; I had to manually crop and zoom-in the far away shots in addition to separating each individual shot of Gaga. This can be used to make GIFs with or to watch only the Gaga parts without interruption from the other guests or host. Original video length was 47:32. Edited down to only Gaga shots is now 11:03. After making almost exclusively Katy Perry posts I figured it was time to start making Gaga videos, especially given my username.</b><br>
<br>
<span style="font-size: 18px">
<div class="ToggleTriggerAnchor bbCodeSpoilerContainer">
<button type="button" class="button bbCodeSpoilerButton ToggleTrigger Tooltip JsOnly" data-target="> .SpoilerTarget"><span>Spoiler: <span class="SpoilerTitle">Mediainfo</span></span></button>
<div class="SpoilerTarget bbCodeSpoilerText"><b>Format : MPEG-4</b><br>
<b>Format profile : Base Media / Version 2</b><br>
<b>Codec ID : mp42 (mp42/isom)</b><br>
<b>File size : 659 MiB</b><br>
<b>Duration : 11 min 3 s</b><br>
<b>Overall bit rate : 8 331 kb/s</b><br>
<b>Frame rate : 25.000 FPS</b><br>
<b>Codirector : codirector</b><br>
<b>Production studio : studio</b><br>
<b>ContentType : Unknown Type</b><br>
<br>
<b>Video</b><br>
<b>ID : 1</b><br>
<b>Format : AVC</b><br>
<b>Format/Info : Advanced Video Codec</b><br>
<b>Format profile : Constrained Baseline@L4</b><br>
<b>Format settings : 3 Ref Frames</b><br>
<b>Format settings, CABAC : No</b><br>
<b>Format settings, Reference frames : 3 frames</b><br>
<b>Format settings, GOP : M=1, N=30</b><br>
<b>Muxing mode : Container profile=Baseline@L3</b><br>
<b>Codec ID : avc1</b><br>
<b>Codec ID/Info : Advanced Video Coding</b><br>
<b>Duration : 11 min 3 s</b><br>
<b>Bit rate : 8 122 kb/s</b><br>
<b>Width : 1 920 pixels</b><br>
<b>Height : 1 080 pixels</b><br>
<b>Display aspect ratio : 16:9</b><br>
<b>Frame rate mode : Constant</b><br>
<b>Frame rate : 25.000 FPS</b><br>
<b>Standard : Component</b><br>
<b>Color space : YUV</b><br>
<b>Chroma subsampling : 4:2:0</b><br>
<b>Bit depth : 8 bits</b><br>
<b>Scan type : Progressive</b><br>
<b>Bits/(Pixel*Frame) : 0.157</b><br>
<b>Stream size : 643 MiB (97%)</b><br>
<b>Language : English</b><br>
<b>Color range : Limited</b><br>
<b>Color primaries : BT.709</b><br>
<b>Transfer characteristics : BT.709</b><br>
<b>Matrix coefficients : BT.709</b><br>
<b>Codec configuration box : avcC</b><br>
<b>Audio</b><br>
<b>ID : 2</b><br>
<b>Format : AAC LC</b><br>
<b>Format/Info : Advanced Audio Codec Low Complexity</b><br>
<b>Codec ID : mp4a-40-2</b><br>
<b>Duration : 11 min 3 s</b><br>
<b>Source duration : 11 min 3 s</b><br>
<b>Bit rate mode : Constant</b><br>
<b>Bit rate : 192 kb/s</b><br>
<b>Channel(s) : 2 channels</b><br>
<b>Channel layout : L R</b><br>
<b>Sampling rate : 44.1 kHz</b><br>
<b>Frame rate : 43.066 FPS (1024 SPF)</b><br>
<b>Compression mode : Lossy</b><br>
<b>Stream size : 15.2 MiB (2%)</b><br>
<b>Source stream size : 15.2 MiB (2%)</b><br>
<b>Title : Stereo</b><br>
<b>Language : English</b><br>
<b>Default : Yes</b><br>
<b>Alternate group : 1</b></div>
</div></span><br>
<span style="font-size: 26px"><span style="color: #ff4d4d"><b>Screencaps:</b></span></span> <img src="https://images2.imgbox.com/5b/5e/D5rJNPgx_o.jpg" class="bbCodeImage LbImage" alt="[​IMG]" data-url="https://images2.imgbox.com/5b/5e/D5rJNPgx_o.jpg" style=""><br>
<br>
<span style="font-size: 26px"><span style="color: #ff4d4d"><b>DOWNLOAD:</b><br>
<b>
<div class="bbCodeBlock bbCodeVfcHH HiddenContent">
<div class="attribution type">Hidden Content:</div>
<blockquote>You must reply before you can see the hidden data contained here.</blockquote>
</div></b><br>
<b>There you go! Hope you enjoy! <img src="https://images2.imgbox.com/c9/be/sbMqQkAS_o.gif" class="bbCodeImage LbImage" alt="[​IMG]" data-url="https://images2.imgbox.com/c9/be/sbMqQkAS_o.gif" style=""></b></span></span><br>
​</div>
<div class="messageTextEndMarker">&nbsp;</div>
</blockquote>
</article>]]></description>
                <author><![CDATA[Gagawuv]]></author>
                </item>

                </channel></rss>